<?xml version="1.0" encoding="UTF-8" standalone="no"?>
<svg
   version="1.1"
   width="1024"
   height="559"
   id="svg87"
   sodipodi:docname="deepbound_logo_with_bg.svg"
   inkscape:version="1.3 (0e150ed, 2023-07-21)"
   xmlns:inkscape="http://www.inkscape.org/namespaces/inkscape"
   xmlns:sodipodi="http://sodipodi.sourceforge.net/DTD/sodipodi-0.dtd"
   xmlns="http://www.w3.org/2000/svg"
   xmlns:svg="http://www.w3.org/2000/svg">
  <defs
     id="defs87" />
  <sodipodi:namedview
     id="namedview87"
     pagecolor="#505050"
     bordercolor="#eeeeee"
     borderopacity="1"
     inkscape:showpageshadow="0"
     inkscape:pageopacity="0"
     inkscape:pagecheckerboard="0"
     inkscape:deskcolor="#d1d1d1"
     inkscape:zoom="1.6895046"
     inkscape:cx="572.06118"
     inkscape:cy="268.42188"
     inkscape:window-width="3440"
     inkscape:window-height="1412"
     inkscape:window-x="0"
     inkscape:window-y="0"
     inkscape:window-maximized="1"
     inkscape:current-layer="svg87" />
  <rect
     style="fill:#020202;fill-opacity:1;stroke-width:152.062;stroke-linecap:round;stroke-linejoin:round"
     id="rect87"
     width="1024"
     height="559"
     x="0"
     y="0" />
  <g
     id="g87"
     transform="translate(-32.32014,0.60099224)">
    <path
       d="m 428.05575,195.18816 c 92.27611,0 92.27611,0 118.81641,25.73047 5.32476,5.62632 9.56994,11.42826 13.18359,18.26953 2.20524,4.17408 3.86593,8.11714 5,13 -3.0411,2.16616 -7.70604,3.96979 -12,4 -0.49629,-1.05058 -0.99258,-2.10117 -1.50391,-3.18359 -3.80635,-7.92133 -7.56345,-15.23981 -13.49609,-21.81641 -0.5066,-0.59812 -1.0132,-1.19625 -1.53516,-1.8125 -11.12762,-12.24858 -27.46249,-18.40946 -43.46484,-20.1875 l -53,-1 v 141 c 43.65544,2.38416 90.91813,0.31098 111.8125,-44.0625 4.47184,-9.07211 10.88155,-15.08676 20.1875,-18.9375 2.72356,-0.90785 4.32795,-1.12844 7.12915,-1.14184 0.82839,-0.007 1.65678,-0.0141 2.51027,-0.0213 0.89372,-0.004 1.78744,-0.008 2.70824,-0.0126 1.9043,-0.0232 3.8086,-0.0473 5.71289,-0.0723 2.99283,-0.035 5.98526,-0.0644 8.97827,-0.0779 2.8951,-0.0156 5.78905,-0.0559 8.68384,-0.0999 0.87954,0.002 1.75909,0.004 2.66529,0.006 10.43501,-0.20235 19.15951,-4.34162 26.61205,-11.58001 4.55474,-5.43983 7.18765,-11.18088 9,-18 0.18434,-0.66257 0.36867,-1.32515 0.55859,-2.00781 2.09417,-9.45153 -0.67188,-19.04787 -5.30859,-27.30469 -3.36031,-5.20518 -12.83382,-16.91107 -29.99365,-16.75 -1.41344,0.009 -2.82688,0.0186 -4.24033,0.0276 -0.74909,0.006 -1.49818,0.0126 -2.26997,0.0191 -3.98956,0.0271 -7.97908,0.0171 -11.96871,0.0119 -5.06702,-0.006 -10.13294,-0.001 -15.1997,0.0552 -4.10196,0.0447 -8.20187,0.0446 -12.30395,0.0159 -1.55231,-0.003 -3.10475,0.01 -4.65679,0.0391 -11.83792,0.21256 -18.59424,-2.21122 -27.6169,-10.1062 -1.01717,-0.98252 -2.02708,-1.97363 -3,-3 11.65757,-0.11625 23.315,-0.20489 34.97303,-0.25906 5.41431,-0.026 10.82822,-0.0612 16.2423,-0.11813 5.23257,-0.0546 10.46475,-0.0843 15.69758,-0.0972 1.98856,-0.009 3.9771,-0.0271 5.9655,-0.0543 11.00952,-0.14424 20.28592,-0.114 30.12159,5.52865 0.80621,0.46174 1.61242,0.92348 2.44305,1.39921 1.9065,1.13613 3.73482,2.33493 5.55695,3.60078 0.825,0.55688 1.65,1.11375 2.5,1.6875 0.495,0.43313 0.99,0.86625 1.5,1.3125 l 3,3 c 9.97922,12.75767 13.0977,26.15214 12,42 -1.07911,6.83152 -3.58692,12.68176 -6.91406,18.71094 -1.23217,2.5973 -1.92775,4.40321 -2.08594,7.28906 1.0085,2.41867 2.03348,4.54885 3.3125,6.8125 6.72263,12.08457 7.85496,25.7882 4.0625,39.125 -5.28131,14.92951 -14.51637,24.80142 -28.49219,31.88672 -0.95133,0.38801 -1.90265,0.77602 -2.88281,1.17578 -0.58012,0.25106 -1.16024,0.50211 -1.75793,0.76078 -9.16667,3.3743 -18.85317,2.61329 -28.46863,2.53219 -1.95869,-0.006 -3.91738,-0.01 -5.87607,-0.0129 -5.12594,-0.0114 -10.25163,-0.0408 -15.37747,-0.0741 -5.24228,-0.0308 -10.48459,-0.0444 -15.72693,-0.0595 -10.26444,-0.0321 -20.52868,-0.0832 -30.79297,-0.14649 6.76773,-5.44031 14.62809,-13.15429 23.75952,-13.35302 1.02513,-0.003 1.02513,-0.003 2.07097,-0.007 1.48468,-0.003 2.96938,5.2e-4 4.45402,0.01 2.36037,0.0138 4.71989,0.007 7.08025,-0.005 6.71107,-0.0309 13.42195,-0.0262 20.13304,-0.006 4.10803,0.011 8.21544,-0.002 12.32338,-0.0299 1.55588,-0.005 3.11182,-0.002 4.66765,0.0124 12.91525,0.11388 23.86472,-1.97716 33.53851,-11.24715 7.17146,-8.63415 10.46797,-19.1446 10.30079,-30.23437 -0.68175,-6.52525 -3.35565,-12.35633 -6.32813,-18.14063 -3.79101,1.44951 -7.38746,3.15173 -11,5 l 0.875,1.40625 c 4.04762,7.53308 4.21604,15.29849 3.125,23.59375 -2.50932,6.98708 -6.67271,11.31867 -13,15 -3.72093,1.75281 -6.6051,2.24558 -10.70825,2.22705 -1.12079,-1.5e-4 -2.24157,-3e-4 -3.39632,-4.5e-4 -1.19912,-0.0103 -2.39825,-0.0207 -3.63371,-0.0313 -1.2359,-0.003 -2.47181,-0.006 -3.74516,-0.009 -3.27321,-0.009 -6.54622,-0.0272 -9.81936,-0.0494 -3.34501,-0.0205 -6.69003,-0.0294 -10.03509,-0.0397 -6.55411,-0.022 -13.1081,-0.0555 -19.66211,-0.0977 0.97704,-1.81364 1.95669,-3.62588 2.9375,-5.4375 0.54527,-1.00933 1.09055,-2.01867 1.65234,-3.05859 1.41016,-2.50391 1.41016,-2.50391 2.41016,-3.50391 1.4108,-0.10143 2.82653,-0.13567 4.24097,-0.14184 0.90151,-0.007 1.80302,-0.0141 2.73185,-0.0213 0.98221,-0.004 1.96442,-0.008 2.9764,-0.0126 2.06576,-0.0232 4.13152,-0.0473 6.19726,-0.0723 3.26757,-0.0351 6.53477,-0.0644 9.80249,-0.0779 3.14638,-0.0155 6.29166,-0.0557 9.43775,-0.0999 1.45813,0.003 1.45813,0.003 2.94572,0.006 5.70679,-0.1026 9.19556,-0.67128 13.66756,-4.58001 2.82793,-4.24189 2.78122,-8.01873 2,-13 -1.68013,-3.12291 -3.7833,-5.39164 -7,-7 -2.76222,-0.13565 -5.49796,-0.21272 -8.26172,-0.23828 -0.82402,-0.008 -1.64803,-0.0161 -2.49702,-0.0245 -1.74764,-0.0138 -3.4953,-0.0246 -5.24297,-0.0324 -2.65816,-0.0172 -5.31507,-0.061 -7.9729,-0.10523 -1.69986,-0.0101 -3.39973,-0.0186 -5.09961,-0.0254 -1.1832,-0.0263 -1.1832,-0.0263 -2.3903,-0.0531 -5.64174,0.0219 -8.87244,1.28055 -13.53548,4.47883 -1.82795,1.86157 -1.82795,1.86157 -3.0625,4 -0.48855,0.78504 -0.97711,1.57008 -1.48047,2.37891 -1.55966,2.80571 -2.94898,5.66202 -4.33203,8.55859 -22.81702,44.11203 -79.87605,43.97224 -132.125,44.0625 V 195.18729 Z"
       fill="#e9edf0"
       id="path3"
       sodipodi:nodetypes="ccccccccccccccccccccccccccccccccccccccccccccccccccccccccccccccccccccccccccccccccccccccccccccccccccccccc" />
    <path
       d="m 562.02573,222.17461 c 7.66793,-0.1018 15.33569,-0.17163 23.00415,-0.21973 2.60619,-0.0201 5.21233,-0.0473 7.81836,-0.082 3.75589,-0.0488 7.51118,-0.0713 11.26733,-0.0889 1.15661,-0.0206 2.31322,-0.0413 3.50487,-0.0626 8.18078,-0.002 14.55339,1.22737 20.92873,6.56647 5.58519,6.63389 8.80494,11.38545 8.41406,20.32422 -1.06975,9.63876 -4.28273,14.46071 -11.42578,20.89844 -5.77143,3.82368 -11.82334,3.94583 -18.52344,3.9375 -1.74545,0.0203 -3.49089,0.0411 -5.23633,0.0625 -2.71384,0.0225 -5.42743,0.039 -8.14135,0.0449 -15.79597,0.0576 -29.53055,1.47683 -41.27076,13.28955 -4.58517,4.96768 -7.66319,10.20626 -10.71484,16.20459 -12.92706,23.05248 -28.4889,34.46166 -54.5,34.1875 -0.97453,-0.005 -1.94906,-0.009 -2.95312,-0.0137 -2.39066,-0.0117 -4.78128,-0.0297 -7.17188,-0.0488 v -12 c 1.01578,-0.0374 2.03156,-0.0748 3.07813,-0.11328 15.47461,-0.68529 30.57791,-3.28494 41.92187,-14.88672 3.64828,-5.0502 6.72968,-10.30142 9.375,-15.9375 7.56752,-15.47902 19.5397,-26.08918 35.625,-32.0625 4.9882,-1.36739 10.02751,-1.11695 15.15625,-1.10547 2.01173,-0.0134 4.02345,-0.0285 6.03516,-0.0449 3.16035,-0.0229 6.31956,-0.0371 9.47998,-0.0247 3.05828,0.009 6.11431,-0.02 9.17236,-0.0554 0.94283,0.0122 1.88566,0.0245 2.85706,0.0371 4.81346,-0.0159 4.81346,-0.0159 9.00354,-2.08799 3.70677,-4.27928 4.6025,-8.15104 4.51049,-13.72251 -0.42421,-3.94136 -2.20412,-6.16118 -5.18408,-8.6228 -4.45053,-2.01661 -8.51211,-1.65916 -13.33545,-1.53345 -2.04816,0.0118 -4.09634,0.0215 -6.14453,0.0293 -3.21586,0.0268 -6.42902,0.0684 -9.64404,0.1477 -17.98569,0.40131 -17.98569,0.40131 -22.91162,-3.2351 -2.23131,-3.12235 -3.99512,-5.86762 -3.99512,-9.78172 z"
       fill="#5761de"
       id="path6"
       style="fill:#708ecd;fill-opacity:1"
       sodipodi:nodetypes="cccccccccccccccccccccccccccccccccc" />
    <path
       d="m 448.58453,221.72138 c 56.72025,0 56.72025,0 73.67969,16.34375 6.17491,7.06892 11.90765,15.5226 14.32031,24.65625 -2.2479,5.07416 -8.95453,9.7892 -11,11 -0.27973,-0.9668 -0.55945,-1.9336 -0.84766,-2.92969 -3.73024,-12.33203 -9.04917,-22.79077 -20.57031,-29.47266 -14.53952,-7.5887 -25.44891,-5.97237 -43.58203,-6.59765 v 102 h -12 z"
       fill="#eaeef0"
       id="path10"
       sodipodi:nodetypes="cccccccccc" />
  </g>
</svg>
